<?xml version="1.0" standalone="no"?>
<!DOCTYPE svg PUBLIC "-//W3C//DTD SVG 20010904//EN"
 "http://www.w3.org/TR/2001/REC-SVG-20010904/DTD/svg10.dtd">
<svg version="1.0" xmlns="http://www.w3.org/2000/svg"
 width="1024.000000pt" height="1024.000000pt" viewBox="0 0 1024.000000 1024.000000"
 preserveAspectRatio="xMidYMid meet">

<g transform="translate(0.000000,1024.000000) scale(0.100000,-0.100000)"
fill="#000000" stroke="none">
<path d="M7201 8584 c-87 -23 -139 -60 -303 -214 -190 -179 -265 -236 -393
-300 -104 -51 -321 -130 -359 -130 -12 0 -38 11 -59 25 -190 130 -523 298
-643 325 -55 12 -102 -2 -141 -42 -30 -33 -195 -249 -243 -321 -23 -34 -28
-36 -55 -30 -73 19 -148 6 -195 -33 -42 -36 -61 -76 -62 -136 -1 -27 -6 -51
-12 -53 -6 -2 -28 -6 -49 -10 -70 -11 -147 -104 -147 -177 0 -18 4 -48 9 -65
l9 -32 -46 -6 c-139 -19 -212 -88 -212 -201 l0 -44 -40 0 c-112 0 -200 -88
-200 -200 0 -48 -1 -50 -27 -50 -31 0 -91 -28 -141 -64 -18 -14 -77 -38 -130
-55 -99 -30 -606 -179 -787 -231 -55 -16 -167 -49 -250 -73 -82 -25 -267 -79
-410 -121 -501 -146 -660 -194 -712 -214 -108 -41 -187 -94 -273 -181 -89 -91
-136 -159 -177 -262 -55 -135 -54 -108 -50 -1802 l3 -1562 22 -84 c37 -138
102 -252 202 -351 133 -133 250 -190 430 -211 141 -17 243 1 540 94 96 30 252
78 345 107 94 29 233 72 310 95 77 24 367 114 645 200 278 86 506 158 508 160
1 1 -4 29 -13 61 -33 126 29 255 151 315 23 11 129 47 235 80 107 33 271 84
364 114 94 29 244 77 335 105 91 28 199 62 240 75 319 103 513 157 570 162 83
6 125 -15 158 -78 21 -38 23 -53 18 -116 -3 -40 -2 -73 3 -73 10 0 127 35 551
165 184 57 468 143 630 193 765 233 997 305 1058 328 243 91 415 272 492 519
19 62 23 103 30 360 4 160 7 821 5 1470 -3 1155 -4 1182 -24 1258 -67 254
-270 459 -516 522 -85 22 -251 21 -343 -3 -51 -13 -75 -15 -77 -8 -2 6 -15 57
-29 112 -29 113 -78 258 -108 319 -147 293 -392 435 -637 369z m263 -143 c61
-30 111 -82 132 -137 25 -66 15 -232 -21 -339 -74 -224 -215 -391 -390 -464
-123 -52 -138 -49 -50 9 98 66 217 183 273 270 70 108 132 298 132 403 0 157
-149 247 -314 191 -38 -13 -79 -46 -202 -165 -175 -167 -238 -219 -363 -294
-80 -48 -235 -123 -288 -139 -15 -5 -34 1 -63 20 -22 15 -39 28 -38 29 2 1 46
19 98 40 259 103 433 220 640 430 153 156 192 176 325 172 60 -2 93 -9 129
-26z m341 -556 l34 -130 -26 -45 c-30 -52 -101 -153 -135 -191 -69 -79 -157
-100 -239 -58 l-41 20 75 78 c103 108 146 178 204 328 20 53 26 93 31 183 l5
115 29 -85 c16 -47 44 -143 63 -215z m-2308 250 c153 -58 480 -242 628 -353
95 -72 198 -166 187 -170 -14 -4 -202 88 -282 139 -174 112 -373 216 -560 294
-63 27 -117 50 -119 51 -9 7 43 64 59 64 11 0 50 -11 87 -25z m-61 -151 c127
-50 311 -141 445 -220 107 -63 129 -80 109 -82 -110 -14 -155 -49 -334 -269
l-48 -59 -87 23 c-47 12 -133 31 -191 40 -76 12 -111 23 -126 37 -42 41 -144
208 -144 236 0 10 184 263 224 308 25 29 52 26 152 -14z m-478 -269 c54 -120
106 -197 325 -481 l18 -23 -68 6 c-64 5 -71 8 -116 52 -105 102 -257 354 -259
431 -1 25 6 40 27 57 15 13 32 22 37 21 5 -2 21 -30 36 -63z m3372 -75 c132
-25 284 -141 352 -267 45 -83 65 -156 73 -266 l7 -82 -67 -67 c-74 -76 -205
-166 -341 -235 l-92 -47 -68 32 -69 31 -7 83 c-34 372 -68 628 -98 738 -15 54
-14 55 53 69 34 7 67 14 72 16 22 7 136 4 185 -5z m-466 -117 c-6 -61 -23 -96
-61 -126 -13 -10 -23 -23 -23 -28 0 -5 -16 -33 -35 -61 -35 -50 -42 -83 -18
-83 7 0 24 23 38 50 33 62 54 86 69 78 6 -3 8 -3 4 1 -3 4 5 24 18 43 13 20
24 42 24 49 0 8 4 14 8 14 11 0 53 -325 52 -403 0 -48 -5 -66 -29 -101 -34
-49 -178 -187 -233 -224 -21 -13 -38 -29 -38 -33 0 -5 -5 -9 -11 -9 -6 0 -9
20 -8 53 2 29 -1 52 -6 51 -19 -2 -35 -49 -30 -89 4 -36 2 -43 -26 -64 l-32
-25 6 140 c10 246 62 426 168 581 32 49 83 123 111 166 29 42 53 77 55 77 1 0
0 -26 -3 -57z m-1633 -8 l141 -47 -24 -27 c-14 -14 -47 -51 -74 -81 -73 -82
-328 -342 -530 -541 -239 -236 -405 -395 -554 -529 -100 -90 -219 -199 -285
-261 -44 -42 -95 -90 -112 -106 -18 -17 -30 -33 -26 -37 4 -4 1 -5 -7 -2 -9 3
-27 -10 -45 -34 -16 -21 -34 -39 -38 -40 -10 0 -249 -222 -312 -289 -29 -31
-45 -57 -45 -74 0 -27 -3 -29 -120 -60 -88 -24 -173 -41 -196 -38 -16 2 -25
-6 -32 -26 -6 -15 -11 -21 -12 -13 -1 10 -4 9 -9 -5 -6 -16 -12 -9 -31 40 -50
133 -38 190 68 324 l19 24 48 -24 c32 -16 53 -35 66 -61 23 -44 45 -58 94 -58
75 0 134 66 120 133 -8 37 -75 130 -110 153 -32 21 -31 29 5 66 36 36 68 33
106 -10 96 -108 91 -105 140 -99 32 3 54 13 75 33 62 59 45 139 -49 225 l-55
51 55 55 c49 49 59 55 83 49 27 -7 59 -36 103 -95 21 -27 29 -31 72 -31 41 0
55 5 84 31 66 57 58 129 -23 220 l-48 54 42 48 c24 26 52 47 63 47 35 0 89
-28 120 -64 85 -98 192 -101 253 -10 23 35 25 104 4 143 -17 34 -86 95 -127
113 -15 7 -28 15 -28 18 1 3 27 34 59 70 l59 65 52 -25 c39 -18 55 -33 66 -59
25 -60 41 -71 101 -71 46 0 58 4 89 33 29 26 37 42 41 80 8 67 -31 144 -97
192 -28 20 -50 40 -50 43 0 12 74 82 88 82 29 0 109 -42 127 -68 44 -60 62
-72 110 -72 96 0 151 59 172 185 2 16 1 17 -6 5 -5 -8 -8 -17 -5 -21 2 -4 0
-10 -6 -14 -5 -3 -10 2 -10 13 0 33 -54 95 -118 136 l-61 39 20 26 c47 61 195
215 223 233 44 28 108 19 277 -37z m-1445 -47 c32 -63 148 -251 201 -327 l17
-24 -74 7 c-45 5 -82 14 -92 23 -22 20 -121 185 -147 245 -35 79 -36 103 -5
127 45 36 60 28 100 -51z m1664 -27 c0 -9 -145 -175 -254 -291 -160 -170 -584
-587 -800 -787 -336 -312 -567 -525 -773 -716 -216 -200 -240 -230 -224 -279
16 -50 116 -567 110 -572 -2 -2 -16 -7 -32 -11 -25 -7 -27 -5 -27 23 0 59 -11
92 -32 92 -17 0 -19 -5 -13 -32 3 -18 11 -46 17 -61 6 -15 9 -29 7 -31 -5 -5
-233 -55 -237 -52 -1 2 -3 20 -5 42 -1 21 -7 44 -14 49 -9 8 -63 196 -63 220
0 3 -5 3 -12 -1 -6 -4 -8 -3 -5 3 6 9 1 31 -41 175 -10 37 -17 69 -15 72 3 2
0 14 -7 25 -10 19 -8 21 17 22 15 1 31 1 34 1 3 0 22 3 42 8 20 4 39 4 42 0 3
-4 -15 -11 -40 -14 -25 -4 -45 -11 -45 -16 0 -5 39 3 88 16 48 14 104 28 125
31 36 5 38 5 33 -18 -9 -37 7 -93 27 -97 21 -4 22 18 2 73 -9 24 -11 41 -5 43
6 2 10 28 10 59 0 51 3 58 43 98 23 23 47 48 52 54 6 6 30 26 55 44 25 18 49
43 55 55 5 12 17 24 25 27 9 3 60 48 115 101 55 53 120 112 145 132 25 21 88
78 140 128 52 50 118 111 145 134 214 182 950 909 1160 1146 91 102 111 120
131 116 13 -2 24 -7 24 -11z m-1416 -190 c-2 -2 -14 3 -27 12 -22 14 -117 162
-117 182 0 5 33 -36 74 -90 40 -55 72 -102 70 -104z m2316 122 c81 -41 166
-58 217 -44 20 6 38 9 40 7 2 -1 -11 -28 -27 -58 -69 -127 -116 -334 -126
-558 -7 -143 -14 -180 -36 -180 -10 0 -71 -38 -386 -241 -63 -41 -88 -53 -90
-42 -2 8 -10 12 -18 9 -26 -10 -14 4 14 16 26 11 27 12 4 16 -13 2 -30 -2 -38
-8 -14 -12 -19 -4 -15 22 0 5 -2 7 -7 7 -30 -5 -44 2 -39 21 6 22 -8 37 -18
20 -11 -18 -25 -11 -22 13 1 17 -3 22 -20 21 -26 -1 -29 6 -11 24 6 6 8 15 3
19 -4 5 -10 3 -12 -3 -7 -21 -44 -3 -41 20 2 15 -2 21 -17 21 -12 0 -20 6 -19
17 1 10 -4 14 -12 11 -8 -3 -14 0 -14 6 0 6 -7 8 -15 5 -11 -5 -15 1 -15 21 0
23 -2 26 -15 15 -12 -10 -15 -10 -15 3 0 24 -52 72 -73 68 -16 -2 -18 2 -11
21 6 20 5 21 -10 9 -14 -12 -16 -10 -16 14 0 24 -3 26 -24 21 -20 -5 -25 -2
-28 16 -2 16 -9 22 -21 20 -15 -3 -17 1 -11 20 6 21 5 21 -10 9 -16 -13 -17
-12 -11 12 6 22 4 26 -9 21 -9 -3 -16 -10 -16 -16 0 -5 -4 -6 -10 -3 -5 3 -10
17 -10 31 0 18 -5 24 -17 22 -14 -2 -17 3 -15 20 3 23 -13 31 -20 10 -2 -6
-10 -8 -16 -4 -7 4 -10 16 -7 27 6 17 3 19 -19 13 -22 -5 -24 -3 -19 17 4 14
2 20 -4 16 -6 -4 -13 0 -17 8 -3 8 -12 12 -21 9 -28 -11 -15 7 72 101 l87 94
22 -20 c15 -14 24 -17 29 -9 3 6 -4 19 -17 29 l-23 19 44 48 c25 27 67 73 94
102 l50 54 61 -15 c192 -48 367 -47 514 2 49 16 105 39 123 50 19 12 36 20 39
18 3 -1 34 -17 70 -34z m-1839 -88 c46 -15 107 -39 134 -53 141 -70 215 -164
151 -193 -21 -10 -28 -6 -66 35 -45 49 -118 83 -275 127 -84 23 -129 55 -164
114 l-18 31 77 -17 c42 -9 114 -29 161 -44z m-970 -97 c39 -79 155 -252 225
-339 30 -36 54 -71 54 -76 0 -11 -120 14 -172 35 -37 15 -116 124 -178 245
-57 112 -62 146 -24 176 44 35 60 28 95 -41z m163 -26 c-34 -4 -38 1 -24 29
l12 22 19 -24 c18 -24 18 -24 -7 -27z m546 -23 c63 -11 116 -22 118 -24 2 -2
-4 -15 -14 -29 -11 -18 -22 -25 -35 -21 -10 3 -68 17 -129 30 -62 13 -114 26
-118 30 -4 3 0 11 8 16 13 9 12 10 -2 6 -9 -3 -22 1 -28 9 -15 17 17 14 200
-17z m-350 -74 c146 -18 310 -54 395 -86 45 -16 75 -38 121 -84 57 -58 93
-122 80 -144 -11 -18 -47 -20 -53 -3 -25 80 -54 106 -158 142 -77 27 -290 66
-435 80 -122 13 -117 10 -162 82 l-18 28 53 0 c29 0 109 -7 177 -15z m-623
-67 c6 -7 16 -31 23 -53 26 -86 144 -291 234 -410 49 -64 56 -81 29 -67 -10 5
-39 13 -65 16 -29 4 -60 17 -78 32 -50 43 -198 298 -229 396 -9 27 -9 43 -1
57 19 37 68 53 87 29z m217 -118 l26 -40 -50 0 c-28 0 -50 5 -50 10 0 17 30
70 39 70 5 0 20 -18 35 -40z m473 -40 c54 -11 101 -20 106 -20 11 0 -43 -78
-59 -84 -31 -12 -108 30 -142 78 -40 54 -41 54 95 26z m3011 -92 c-2 -57 -10
-112 -16 -124 -26 -49 -272 -242 -567 -444 -115 -79 -248 -171 -295 -205 -47
-34 -213 -151 -370 -260 -250 -174 -571 -410 -825 -607 -163 -126 -353 -246
-505 -320 -124 -61 -468 -207 -635 -270 -16 -6 -35 -15 -41 -20 -8 -5 -19 12
-34 54 -12 35 -32 82 -45 105 l-23 41 242 103 c567 240 1033 495 1334 727 451
348 697 525 1169 840 315 211 421 290 523 394 47 47 87 86 89 87 2 0 2 -45 -1
-101z m-3864 -42 c12 -22 47 -84 76 -136 29 -52 73 -123 97 -157 23 -34 43
-64 43 -66 0 -3 -19 -1 -42 4 -24 4 -60 10 -80 14 -31 5 -43 15 -76 64 -54 81
-142 255 -142 281 0 24 51 51 82 42 10 -2 29 -23 42 -46z m526 28 c269 -45
458 -126 532 -228 31 -43 33 -63 6 -79 -13 -9 -25 -3 -58 27 -66 60 -188 112
-361 155 -85 22 -176 42 -202 46 -49 8 -52 10 -101 94 -9 15 20 12 184 -15z
m1395 -18 c10 4 15 0 15 -11 0 -11 5 -15 15 -11 9 3 15 0 15 -9 0 -8 9 -15 19
-15 12 0 18 -7 17 -17 -1 -13 8 -19 27 -21 19 -2 27 -8 23 -17 -6 -16 19 -39
33 -31 16 10 24 -14 10 -30 -11 -13 -9 -14 14 -9 23 6 25 4 20 -16 -6 -20 -4
-22 27 -16 28 6 31 5 20 -8 -18 -21 14 -53 35 -35 18 15 20 -1 3 -19 -11 -10
-8 -11 13 -6 27 7 48 -8 29 -20 -15 -9 -12 -22 7 -29 9 -4 20 -1 24 6 7 10 11
10 21 -1 10 -11 10 -14 1 -18 -25 -9 -12 -23 15 -17 24 7 26 6 14 -9 -18 -21
-6 -43 14 -26 12 10 18 9 32 -4 15 -16 15 -17 -1 -17 -9 0 -17 -5 -17 -11 0
-7 11 -9 30 -5 22 4 30 2 30 -9 0 -8 -5 -15 -11 -15 -8 0 -7 -5 1 -15 8 -9 21
-13 32 -9 17 5 19 2 13 -15 -7 -22 10 -30 18 -8 4 10 7 10 18 0 10 -10 10 -16
2 -24 -17 -17 -5 -43 13 -28 18 15 45 4 38 -15 -3 -7 4 -20 15 -28 19 -14 19
-16 4 -37 l-16 -23 29 18 c28 18 29 18 14 0 -25 -32 -162 -129 -169 -119 -3 4
-18 14 -33 20 -19 8 -26 17 -22 28 8 19 -14 46 -34 43 -9 -2 -18 5 -20 16 -2
11 0 16 7 12 6 -4 11 -3 11 2 0 19 -14 21 -26 4 -13 -16 -14 -15 -20 6 -6 22
-19 29 -27 15 -2 -5 -2 -3 -1 4 2 7 -1 15 -7 18 -5 4 -7 11 -4 16 4 5 -3 9
-14 9 -12 0 -21 6 -21 14 0 9 -7 12 -21 9 -18 -5 -20 -3 -14 17 6 19 4 22 -9
17 -11 -4 -15 -3 -10 4 4 8 -1 9 -16 4 -19 -6 -21 -4 -16 13 8 23 -15 45 -36
37 -9 -4 -18 1 -22 10 -3 9 -2 13 4 10 6 -3 7 1 4 10 -4 10 -13 13 -26 9 -17
-5 -19 -2 -14 14 8 25 -10 38 -29 22 -15 -13 -19 -8 -16 22 2 12 -4 15 -19 11
-16 -4 -19 -2 -14 11 4 12 0 16 -16 16 -17 0 -20 4 -15 22 6 17 4 20 -10 15
-17 -7 -45 13 -45 32 0 6 -7 8 -15 5 -11 -5 -15 1 -15 20 0 23 -3 25 -19 17
-16 -9 -20 -6 -25 15 -5 17 -12 24 -21 20 -10 -3 -15 1 -15 13 0 24 -11 33
-26 20 -8 -7 -14 -7 -19 2 -5 6 26 44 75 92 l82 81 14 -27 c9 -17 20 -24 29
-21z m-1726 -169 c12 -15 12 -17 -2 -11 -16 6 -57 63 -57 78 0 7 20 -15 59
-67z m-720 -29 c-1 -42 -12 -53 -57 -56 -50 -3 -107 -29 -139 -64 -25 -27 -53
-88 -53 -116 0 -16 -8 -20 -49 -20 -124 -3 -241 -90 -241 -179 0 -16 -6 -36
-12 -44 -7 -9 -71 -51 -143 -94 -71 -43 -175 -110 -230 -150 -130 -93 -176
-125 -375 -263 -91 -64 -190 -134 -220 -157 -30 -23 -92 -70 -137 -104 -175
-133 -284 -258 -353 -404 -50 -105 -70 -179 -77 -294 -5 -85 -8 -92 -32 -105
-14 -7 -59 -32 -100 -55 -42 -24 -79 -43 -83 -43 -12 0 -10 1097 3 1166 25
138 132 298 255 379 80 54 143 76 467 170 266 77 412 119 1097 319 124 36 277
81 340 100 139 42 140 42 139 14z m258 -58 c19 -36 57 -100 84 -142 l49 -78
-70 0 c-66 0 -70 1 -94 33 -29 37 -106 186 -106 203 0 21 52 55 78 52 18 -2
33 -19 59 -68z m4133 35 c0 -9 -6 -31 -14 -50 -8 -18 -11 -37 -8 -41 4 -4 1
-4 -6 0 -9 5 -25 -3 -45 -24 -23 -24 -26 -30 -10 -22 12 7 24 17 26 24 3 8 6
6 6 -4 1 -10 6 -18 11 -18 16 0 12 -45 -12 -116 -28 -85 -82 -145 -184 -205
-226 -133 -305 -179 -310 -179 -3 0 -17 -9 -32 -19 -15 -10 -72 -47 -127 -81
-55 -34 -126 -79 -158 -99 -48 -30 -245 -165 -467 -321 -118 -82 -295 -210
-390 -281 -58 -43 -123 -91 -145 -107 -22 -16 -92 -67 -155 -114 -248 -184
-370 -261 -598 -381 -169 -88 -566 -257 -577 -245 -3 2 -14 40 -25 84 -11 43
-23 86 -25 95 -5 13 38 34 217 104 299 118 531 223 654 296 100 60 228 153
676 490 214 161 380 281 584 424 43 30 106 74 139 97 751 524 760 531 881 637
84 74 94 80 94 56z m-3932 -66 c18 -28 31 -53 28 -56 -3 -3 -29 -2 -58 3 -62
11 -71 28 -37 74 13 16 25 30 28 30 3 0 21 -23 39 -51z m652 36 c-10 -12 -16
-13 -26 -4 -20 16 -18 19 12 19 22 0 25 -2 14 -15z m-220 -40 c127 -35 225
-83 283 -141 55 -56 68 -88 42 -112 -16 -16 -18 -16 -28 2 -46 74 -110 109
-267 146 -120 28 -115 26 -157 83 l-35 47 34 0 c18 0 76 -11 128 -25z m1173
-7 c-8 -9 -2 -20 18 -36 32 -26 39 -20 12 10 -24 26 -3 21 32 -8 29 -24 29
-25 11 -39 -20 -15 -20 -15 0 -17 10 0 29 0 41 1 24 2 39 -14 23 -24 -18 -11
-11 -27 10 -20 15 5 18 3 14 -10 -5 -13 -2 -15 18 -10 18 5 27 2 31 -9 4 -10
1 -16 -9 -16 -8 0 -12 -4 -9 -10 3 -5 19 -10 36 -10 31 0 36 -8 17 -30 -11
-12 -10 -12 5 0 14 10 21 10 30 1 9 -9 9 -14 -2 -20 -18 -12 3 -24 28 -16 11
3 23 0 27 -7 4 -6 2 -14 -4 -16 -27 -9 -10 -24 20 -18 31 6 31 6 13 -14 -16
-17 -16 -20 -2 -20 9 0 19 5 23 11 4 8 9 8 18 -1 8 -8 7 -13 -4 -20 -18 -11
-8 -23 23 -25 16 -2 21 -8 20 -24 -2 -18 0 -20 17 -9 23 15 37 4 21 -16 -15
-18 1 -30 31 -20 17 5 20 3 15 -10 -6 -14 -3 -16 13 -11 15 5 18 3 14 -10 -8
-19 24 -45 46 -37 12 4 13 2 3 -9 -19 -19 -16 -28 8 -22 16 5 20 2 17 -13 -2
-15 2 -18 22 -16 20 2 22 0 10 -8 -13 -9 -12 -12 4 -25 20 -15 20 -15 0 -15
-16 0 -17 -2 -4 -10 9 -6 10 -10 3 -10 -7 0 -20 -8 -30 -18 -10 -10 -42 -35
-71 -56 -43 -31 -55 -36 -67 -26 -11 9 -12 16 -5 25 8 10 7 15 -1 21 -7 4 -15
2 -17 -4 -2 -7 -11 -12 -19 -12 -11 0 -14 7 -9 24 5 21 3 23 -22 18 -22 -4
-25 -2 -14 9 17 18 15 32 -3 25 -9 -3 -15 0 -15 9 0 18 -5 18 -31 5 -20 -11
-28 3 -9 15 16 10 12 25 -8 25 -9 0 -26 11 -36 25 -10 14 -25 25 -33 25 -9 0
-13 6 -9 15 4 10 -1 15 -14 15 -12 0 -20 7 -20 16 0 13 -6 15 -27 10 -20 -5
-24 -4 -14 3 20 13 -4 42 -26 34 -13 -5 -15 -1 -9 21 6 24 5 26 -13 17 -15 -9
-20 -7 -24 9 -3 11 -12 20 -21 20 -9 0 -16 8 -16 20 0 17 -3 19 -19 11 -16 -9
-18 -8 -14 10 5 18 3 20 -17 14 -19 -6 -21 -4 -15 15 6 19 4 21 -16 15 -18 -6
-21 -4 -16 9 6 14 3 16 -13 11 -11 -4 -20 -2 -20 4 0 6 5 11 10 11 6 0 10 5
10 11 0 5 -4 7 -10 4 -5 -3 -10 -2 -10 3 0 6 -9 8 -20 5 -11 -3 -20 0 -20 6 0
6 5 11 10 11 6 0 10 5 10 11 0 6 -9 8 -21 4 -16 -5 -20 -3 -17 12 2 12 -2 17
-15 15 -9 -2 -20 5 -24 14 -5 13 15 36 73 90 76 71 97 88 77 62z m-2087 -96
c12 -8 144 -218 144 -230 0 -4 -25 -5 -55 -4 -53 4 -56 6 -110 66 -30 35 -61
79 -70 99 -14 35 -14 36 11 56 27 21 60 27 80 13z m693 -69 c62 -13 122 -28
133 -32 19 -7 19 -7 1 -30 l-19 -23 -84 25 c-47 14 -118 31 -159 38 -51 9 -82
20 -100 36 l-26 24 70 -7 c39 -3 121 -17 184 -31z m-214 -88 c128 -18 200 -37
270 -72 100 -51 209 -156 203 -197 -5 -34 -23 -28 -57 18 -42 56 -118 97 -231
125 -102 25 -251 48 -372 57 -48 4 -88 8 -88 9 0 2 -7 18 -15 38 l-14 35 97 1
c53 1 147 -5 207 -14z m-541 -101 c248 -67 464 -146 562 -205 71 -43 170 -132
190 -171 31 -60 -10 -81 -46 -23 -37 59 -77 80 -345 182 -157 59 -277 98 -400
129 -115 29 -283 82 -289 92 -10 17 43 61 73 62 7 0 122 -30 255 -66z m1810
21 c3 -8 18 -20 33 -26 26 -10 27 -12 8 -19 -14 -6 -16 -9 -5 -10 27 -4 35 -6
64 -18 22 -10 26 -16 18 -24 -18 -18 -15 -28 8 -28 12 0 20 -7 20 -17 0 -13 3
-14 12 -5 17 17 33 15 18 -3 -10 -12 -10 -15 0 -15 10 0 10 -3 0 -15 -16 -20
-6 -19 25 1 26 17 34 7 13 -14 -9 -9 -6 -12 14 -12 21 0 25 -4 21 -20 -5 -20
3 -24 40 -21 20 3 22 -10 5 -28 -11 -10 -8 -11 15 -5 26 6 28 5 22 -19 -6 -22
-4 -24 19 -20 15 3 26 1 26 -6 0 -6 8 -11 17 -11 15 0 14 -2 -3 -16 -18 -15
-18 -15 8 -10 22 5 25 3 21 -14 -4 -17 0 -20 25 -20 34 0 55 -20 46 -44 -4
-12 0 -16 15 -16 18 0 20 -3 12 -19 -9 -16 -7 -17 16 -13 19 4 24 1 21 -9 -3
-8 5 -19 16 -24 12 -7 21 -20 20 -33 0 -18 4 -20 23 -16 13 4 23 4 23 0 0 -6
-96 -71 -164 -110 l-49 -28 7 25 c5 21 3 25 -9 21 -8 -4 -15 -1 -15 5 0 6 -9
11 -21 11 -15 0 -19 5 -15 16 4 12 1 14 -14 9 -21 -7 -29 10 -7 18 6 2 9 8 5
12 -4 4 -14 2 -22 -4 -18 -15 -40 -5 -32 14 5 14 -20 29 -35 19 -5 -3 -9 1 -9
10 0 8 6 16 13 19 6 2 9 8 4 12 -4 5 -13 3 -19 -3 -18 -18 -28 -15 -28 9 0 11
-4 17 -10 14 -18 -11 -32 6 -18 22 11 14 10 15 -11 8 -21 -6 -23 -5 -18 14 4
18 2 19 -13 11 -26 -14 -30 -13 -30 10 0 12 -7 20 -16 20 -9 0 -18 9 -21 20
-4 14 -11 19 -23 15 -13 -4 -19 1 -24 20 -5 20 -11 25 -25 20 -15 -4 -18 -1
-16 20 3 25 -8 34 -20 15 -10 -17 -24 -2 -18 20 4 15 0 20 -16 20 -14 0 -19 5
-15 15 5 11 2 13 -10 9 -11 -4 -16 -1 -16 11 0 12 -5 15 -20 10 -16 -5 -20 -2
-20 15 0 12 -4 18 -10 15 -5 -3 -10 1 -10 10 0 11 -5 15 -14 12 -8 -3 -17 0
-20 8 -3 9 25 40 71 82 42 37 81 73 87 80 15 17 23 16 30 -2z m1166 -55 c0 -5
-4 -10 -10 -10 -5 0 -10 5 -10 10 0 6 5 10 10 10 6 0 10 -4 10 -10z m-3249
-88 l26 -7 -34 -22 c-19 -13 -31 -17 -27 -11 4 7 -6 3 -22 -8 -46 -32 -343
-158 -351 -150 -3 2 73 52 169 109 117 71 179 104 193 100 11 -2 32 -8 46 -11z
m234 -159 c68 -21 176 -76 257 -129 l67 -45 -19 -42 c-30 -66 -26 -137 18
-279 52 -167 54 -175 38 -175 -22 0 -106 -44 -103 -55 1 -6 -4 -13 -10 -15 -7
-3 -13 0 -13 6 0 12 -60 -14 -71 -30 -3 -5 -32 -16 -65 -24 -32 -9 -77 -25
-100 -35 -22 -11 -62 -23 -90 -26 -27 -3 -59 -12 -71 -20 -12 -8 -49 -20 -82
-28 -65 -15 -81 -22 -81 -37 0 -12 80 0 98 14 8 6 32 12 55 13 23 1 60 9 82
19 22 10 46 17 53 16 7 -1 36 5 63 14 35 12 53 24 59 41 5 13 16 24 24 24 10
0 13 -6 9 -16 -5 -14 -1 -15 28 -9 52 11 181 73 210 101 24 23 27 24 32 7 3
-10 24 -81 47 -158 50 -166 69 -235 65 -235 -1 0 -54 -12 -116 -26 -286 -64
-653 -115 -969 -134 -571 -33 -996 71 -1116 276 l-26 43 28 50 c136 251 614
563 1159 757 216 76 283 103 342 133 64 34 101 35 198 4z m1465 -53 c0 -5 7
-10 15 -10 8 0 15 -4 15 -9 0 -4 12 -6 28 -3 21 3 25 2 15 -8 -17 -19 28 -65
57 -57 17 4 20 1 18 -16 -2 -18 3 -23 27 -25 30 -3 61 -22 37 -22 -7 0 -12 -7
-12 -15 0 -8 7 -15 15 -15 9 0 18 -7 21 -15 4 -10 10 -12 18 -6 7 6 18 4 31
-6 16 -12 16 -14 3 -10 -10 3 -20 2 -23 -2 -5 -10 17 -21 42 -21 21 0 52 -32
35 -38 -23 -7 -12 -22 13 -16 21 5 24 3 18 -12 -5 -13 -3 -16 9 -12 8 4 21 2
28 -2 11 -7 11 -11 -1 -26 -13 -16 -12 -17 10 -11 33 8 58 -17 39 -40 -11 -15
-10 -16 10 -10 17 4 22 2 19 -8 -4 -8 5 -15 25 -19 26 -5 29 -8 18 -21 -10
-13 -9 -15 9 -15 44 0 3 -36 -96 -84 -244 -120 -750 -346 -773 -346 -4 0 -10
12 -13 28 -2 15 -16 79 -30 142 -44 200 -62 337 -47 365 16 30 395 374 413
375 4 0 7 -4 7 -10z m785 -320 c3 -5 1 -10 -4 -10 -6 0 -11 5 -11 10 0 6 2 10
4 10 3 0 8 -4 11 -10z m-1401 -25 c4 -10 -1 -14 -17 -14 -12 1 -32 -2 -44 -4
-13 -3 -23 -2 -23 4 0 8 23 13 58 12 6 -1 12 3 12 8 0 14 7 11 14 -6z m-104
-25 c0 -5 -10 -10 -22 -10 -19 0 -20 2 -8 10 19 13 30 13 30 0z m-205 -90 c4
-7 62 -204 115 -390 12 -41 27 -94 35 -117 15 -45 14 -47 -25 -56 -24 -6 -26
-2 -53 86 -28 94 -137 477 -137 483 0 6 61 1 65 -6z m-2269 -635 c182 -179
462 -255 940 -255 429 0 759 48 1711 247 153 33 187 -11 248 -315 14 -68 25
-130 25 -137 0 -34 -583 -186 -975 -253 -317 -55 -474 -74 -765 -93 -554 -35
-976 59 -1164 261 -57 61 -103 156 -116 236 -10 67 -7 297 5 364 7 39 10 42
19 25 6 -11 38 -47 72 -80z m5823 -66 c36 -13 36 -14 15 -65 -40 -100 -29 -91
-109 -86 -57 3 -73 1 -84 -12 -20 -24 -6 -32 77 -44 114 -16 142 -44 142 -141
0 -93 -51 -170 -145 -219 -42 -22 -63 -26 -130 -27 -80 0 -145 17 -145 39 0 8
40 114 55 143 0 1 23 -4 50 -12 53 -16 107 -11 126 11 16 20 10 23 -66 39 -37
8 -79 22 -92 31 -28 18 -53 70 -53 112 0 87 77 195 161 225 52 18 153 21 198
6z m820 -33 c-2 -19 2 -41 9 -49 11 -13 9 -18 -10 -31 -32 -23 -98 -40 -110
-28 -10 10 -14 100 -4 110 12 11 69 30 94 31 21 1 23 -3 21 -33z m-1317 -108
c49 -15 83 -54 103 -120 40 -134 -4 -298 -106 -393 -49 -46 -91 -60 -154 -53
l-34 4 -3 -109 -3 -109 -75 -24 c-41 -13 -80 -24 -86 -24 -8 0 -11 105 -10
366 l1 367 74 26 c54 19 76 22 78 14 3 -9 16 -4 39 13 28 22 98 51 128 53 5 1
26 -4 48 -11z m-452 -207 c26 -28 47 -56 48 -63 22 -169 8 -258 -54 -355 -47
-74 -110 -113 -182 -113 l-55 0 6 -113 7 -113 -83 -27 c-46 -15 -86 -27 -90
-27 -4 0 -6 174 -5 387 l3 387 70 19 c39 10 95 30 125 43 35 15 75 24 109 24
53 0 57 -2 101 -49z m-894 -53 c-11 -84 -50 -188 -152 -405 -52 -111 -94 -204
-94 -207 0 -7 202 63 214 74 4 5 12 29 17 54 9 51 58 129 91 147 17 9 18 13 7
21 -11 8 -11 9 3 5 17 -6 151 42 170 61 20 20 -6 35 -44 28 -18 -3 -64 -22
-102 -41 -38 -19 -70 -34 -72 -32 -1 1 -3 38 -5 81 l-4 79 95 40 c159 66 244
55 290 -38 23 -48 24 -59 25 -239 l0 -188 -74 -29 c-71 -27 -73 -27 -78 -8 -6
20 -6 20 -20 0 -25 -37 -100 -73 -151 -74 -57 -1 -87 14 -113 56 l-20 32 3
-60 3 -60 -240 -81 c-199 -68 -242 -79 -251 -68 -8 10 -2 41 27 123 36 105
143 351 198 456 14 28 27 53 29 57 2 4 -44 -8 -102 -27 -58 -18 -106 -32 -107
-31 0 0 -2 38 -5 83 -4 71 -2 83 13 91 10 5 108 37 218 71 110 35 204 67 210
72 21 20 27 7 21 -43z m-693 -229 c20 -5 37 -13 37 -17 -1 -4 -20 -43 -43 -87
-30 -56 -47 -79 -57 -75 -8 3 -43 5 -77 5 -51 0 -66 -4 -86 -23 -50 -47 -38
-86 31 -97 132 -23 194 -60 212 -127 15 -53 5 -109 -31 -185 -48 -99 -141
-162 -266 -179 -58 -7 -160 18 -170 42 -3 8 10 48 28 89 25 58 36 74 48 69 9
-3 33 -11 54 -16 68 -19 164 23 155 68 -4 23 -22 31 -105 44 -124 20 -173 72
-173 185 0 96 61 203 145 255 87 54 209 74 298 49z m-856 -455 c54 -34 58 -52
61 -279 l3 -210 -75 -22 c-41 -13 -81 -26 -90 -29 -14 -5 -16 16 -18 178 -3
181 -3 183 -26 186 -14 2 -33 -7 -52 -27 l-30 -29 0 -144 c0 -79 -3 -159 -6
-178 -6 -34 -9 -36 -86 -61 -53 -17 -81 -22 -84 -15 -2 6 -3 132 -2 280 l3
269 70 23 c87 29 85 29 85 2 1 -19 2 -20 10 -7 14 24 86 70 122 79 39 10 85 3
115 -16z m-1287 -271 l0 -116 23 20 c63 59 161 80 213 47 53 -35 59 -61 62
-289 l4 -210 -74 -20 c-40 -11 -78 -21 -85 -23 -9 -2 -13 42 -15 167 -3 145
-6 173 -20 187 -23 23 -61 7 -88 -38 -18 -29 -20 -51 -20 -199 l0 -165 -72
-24 c-40 -14 -79 -25 -86 -25 -10 0 -13 81 -16 375 l-4 376 81 26 c45 15 85
27 90 27 4 1 7 -52 7 -116z m750 87 c75 -38 120 -160 99 -263 -43 -199 -239
-341 -393 -282 -150 57 -155 336 -8 478 80 78 220 109 302 67z m-973 -397 c-5
-330 -7 -363 -27 -427 -48 -153 -208 -238 -330 -176 -21 11 -41 24 -45 30 -3
5 12 35 34 66 22 30 43 69 46 85 7 32 17 36 35 14 18 -21 54 -19 76 6 18 20
19 43 22 358 l3 337 87 30 c48 17 91 32 96 33 5 0 7 -146 3 -356z m-947 -393
c0 -59 0 -60 -32 -68 -41 -11 -49 -4 -58 53 -7 49 -1 60 40 68 51 9 50 10 50
-53z"/>
<path d="M8341 7261 c-30 -30 -26 -53 14 -80 19 -13 35 -27 35 -32 0 -14 -28
-11 -33 4 -3 9 -9 8 -22 -5 -25 -24 -4 -48 41 -48 84 0 101 110 18 122 -30 5
-22 23 11 23 46 0 40 29 -7 33 -27 2 -43 -3 -57 -17z"/>
<path d="M7687 7197 c-20 -31 -38 -96 -27 -102 12 -7 28 16 45 65 18 50 6 74
-18 37z"/>
<path d="M7631 7016 c-14 -56 -14 -56 3 -56 19 0 24 9 32 58 5 34 4 42 -9 42
-9 0 -19 -16 -26 -44z"/>
<path d="M7610 6908 c0 -7 -3 -30 -6 -50 -5 -30 -3 -38 9 -38 18 0 27 21 27
66 0 24 -5 34 -15 34 -8 0 -15 -6 -15 -12z"/>
<path d="M5968 7441 c-28 -25 -33 -36 -33 -75 0 -36 6 -51 29 -75 63 -66 185
-22 186 66 0 100 -108 150 -182 84z m100 -27 c26 -18 28 -50 5 -76 -22 -24
-49 -23 -67 4 -20 29 -20 47 1 70 20 22 32 23 61 2z"/>
<path d="M5750 7289 c0 -5 4 -9 9 -9 5 0 30 -20 57 -44 49 -46 75 -55 36 -13
-12 13 -20 26 -16 29 3 3 -3 5 -13 5 -10 -1 -17 3 -16 9 1 5 -12 15 -28 21
-16 6 -29 7 -29 2z"/>
<path d="M3978 5474 c-17 -16 -6 -104 12 -104 13 0 24 62 12 69 -5 3 -11 14
-13 24 -2 11 -7 15 -11 11z"/>
<path d="M4040 5308 c0 -4 7 -8 15 -8 8 0 15 4 15 8 0 5 -7 9 -15 9 -8 0 -15
-4 -15 -9z"/>
<path d="M4346 5163 c11 -59 22 -83 40 -83 13 0 15 7 9 43 -9 53 -22 77 -41
77 -12 0 -13 -8 -8 -37z"/>
<path d="M4384 4988 c11 -51 31 -73 42 -45 3 8 0 33 -6 56 -8 29 -16 41 -29
41 -17 0 -18 -4 -7 -52z"/>
<path d="M7393 7198 c-23 -29 -24 -38 -6 -38 10 0 26 12 36 25 17 24 17 25 -1
25 -11 0 -24 -6 -29 -12z"/>
<path d="M7265 7110 c-30 -11 -49 -37 -35 -45 14 -9 60 22 60 40 0 8 -1 15 -2
14 -2 0 -12 -4 -23 -9z"/>
<path d="M6446 7091 c-10 -16 43 -46 57 -32 7 7 7 14 2 20 -17 15 -53 22 -59
12z"/>
<path d="M7077 7043 c-15 -14 -6 -33 16 -33 23 0 47 17 47 32 0 10 -54 11 -63
1z"/>
<path d="M6610 7026 c0 -17 49 -31 63 -17 15 15 -2 31 -34 31 -18 0 -29 -5
-29 -14z"/>
<path d="M6765 7010 c-10 -15 -2 -21 31 -23 20 -1 29 3 29 13 0 18 -50 26 -60
10z"/>
<path d="M6915 7010 c-3 -6 0 -13 9 -16 22 -8 59 -1 64 14 5 15 -64 17 -73 2z"/>
<path d="M5163 7133 c9 -2 23 -2 30 0 6 3 -1 5 -18 5 -16 0 -22 -2 -12 -5z"/>
<path d="M6500 6010 c0 -5 7 -10 16 -10 8 0 12 5 9 10 -3 6 -10 10 -16 10 -5
0 -9 -4 -9 -10z"/>
<path d="M2175 5997 c-15 -12 -15 -16 4 -60 15 -34 26 -47 41 -47 17 0 20 6
20 43 0 23 -4 47 -8 53 -12 18 -39 23 -57 11z"/>
<path d="M1623 5665 c-20 -8 -40 -28 -50 -50 -16 -34 -16 -36 4 -63 15 -20 31
-28 64 -32 41 -5 45 -9 41 -40 -1 -5 -23 -9 -49 -7 -43 2 -48 0 -51 -20 -3
-20 1 -23 30 -25 57 -2 72 2 100 29 55 53 27 123 -49 123 -26 0 -33 4 -33 19
0 16 8 20 43 23 37 3 42 6 42 28 0 21 -5 25 -30 27 -16 2 -45 -4 -62 -12z"/>
<path d="M7669 6193 c-13 -16 -12 -17 4 -4 9 7 17 15 17 17 0 8 -8 3 -21 -13z"/>
<path d="M7602 6141 c-13 -9 -20 -20 -16 -23 3 -4 15 2 27 12 27 26 18 34 -11
11z"/>
<path d="M7480 6059 c-22 -18 -22 -19 -3 -10 12 6 25 16 28 21 9 15 3 12 -25
-11z"/>
<path d="M7436 6023 c-6 -14 -5 -15 5 -6 7 7 10 15 7 18 -3 3 -9 -2 -12 -12z"/>
<path d="M7381 5990 c-14 -12 -18 -20 -10 -20 8 0 20 9 27 20 15 25 13 25 -17
0z"/>
<path d="M7329 5953 c-13 -16 -12 -17 4 -4 9 7 17 15 17 17 0 8 -8 3 -21 -13z"/>
<path d="M7149 5823 c-13 -16 -12 -17 4 -4 9 7 17 15 17 17 0 8 -8 3 -21 -13z"/>
<path d="M7080 5779 c0 -5 5 -7 10 -4 6 3 10 8 10 11 0 2 -4 4 -10 4 -5 0 -10
-5 -10 -11z"/>
<path d="M6895 5650 c-3 -5 -2 -10 4 -10 5 0 13 5 16 10 3 6 2 10 -4 10 -5 0
-13 -4 -16 -10z"/>
<path d="M6805 5580 c-16 -7 -17 -9 -3 -9 9 -1 20 4 23 9 7 11 7 11 -20 0z"/>
<path d="M6625 5460 c-3 -6 1 -7 9 -4 18 7 21 14 7 14 -6 0 -13 -4 -16 -10z"/>
<path d="M6563 5417 c-24 -17 -41 -33 -38 -35 3 -3 13 2 23 11 10 10 24 17 30
17 6 0 16 9 22 20 13 25 14 25 -37 -13z"/>
<path d="M6385 5290 c-3 -6 1 -7 9 -4 18 7 21 14 7 14 -6 0 -13 -4 -16 -10z"/>
<path d="M6324 5240 c-22 -17 -47 -37 -56 -45 -9 -7 -28 -21 -43 -31 -14 -9
-24 -19 -22 -21 6 -5 77 37 77 47 0 4 23 24 52 44 29 20 47 36 41 36 -5 0 -28
-14 -49 -30z"/>
<path d="M6130 5090 c-8 -5 -10 -10 -5 -10 6 0 17 5 25 10 8 5 11 10 5 10 -5
0 -17 -5 -25 -10z"/>
<path d="M6090 5060 c-9 -6 -10 -10 -3 -10 6 0 15 5 18 10 8 12 4 12 -15 0z"/>
<path d="M6011 4999 c-13 -11 -22 -21 -19 -24 2 -2 17 7 32 20 16 14 25 25 20
25 -5 -1 -20 -10 -33 -21z"/>
<path d="M5919 4928 c-20 -18 -26 -26 -15 -17 12 9 29 19 39 22 9 4 17 11 17
17 0 15 -3 13 -41 -22z"/>
<path d="M5756 4812 c-3 -5 1 -9 9 -9 8 0 12 4 9 9 -3 4 -7 8 -9 8 -2 0 -6 -4
-9 -8z"/>
<path d="M5690 4770 c-25 -16 -42 -30 -39 -30 12 0 67 31 79 45 17 20 12 18
-40 -15z"/>
<path d="M5065 4460 c-3 -5 -1 -10 4 -10 6 0 11 5 11 10 0 6 -2 10 -4 10 -3 0
-8 -4 -11 -10z"/>
<path d="M4760 4329 c0 -5 5 -7 10 -4 6 3 10 8 10 11 0 2 -4 4 -10 4 -5 0 -10
-5 -10 -11z"/>
<path d="M5770 5660 c0 -5 7 -10 16 -10 8 0 12 5 9 10 -3 6 -10 10 -16 10 -5
0 -9 -4 -9 -10z"/>
<path d="M2055 5078 c8 -37 12 -44 21 -35 9 9 -6 67 -18 67 -6 0 -7 -13 -3
-32z"/>
<path d="M2097 5014 c-9 -10 20 -61 38 -68 25 -9 27 -8 14 16 -17 31 -45 59
-52 52z"/>
<path d="M2180 4928 c0 -17 51 -48 79 -48 44 0 25 16 -71 58 -5 2 -8 -2 -8
-10z"/>
<path d="M1846 4914 c-10 -25 1 -29 14 -5 6 12 7 21 1 21 -5 0 -12 -7 -15 -16z"/>
<path d="M1868 4879 c-7 -19 30 -65 42 -53 6 6 1 20 -14 38 -17 22 -24 26 -28
15z"/>
<path d="M2310 4877 c0 -16 49 -37 86 -37 39 0 28 27 -13 34 -21 4 -46 9 -55
12 -12 3 -18 0 -18 -9z"/>
<path d="M3011 4851 c-40 -11 -38 -31 3 -31 41 0 86 15 86 30 0 11 -51 12 -89
1z"/>
<path d="M2480 4838 c0 -9 13 -18 31 -22 52 -10 79 -7 79 9 0 8 -8 15 -17 15
-10 0 -35 3 -55 6 -30 5 -38 3 -38 -8z"/>
<path d="M3801 4836 c-40 -14 -53 -36 -22 -36 30 0 91 27 91 39 0 14 -26 13
-69 -3z"/>
<path d="M2660 4830 c-13 -9 -13 -11 0 -20 25 -17 94 -8 98 13 3 14 -4 17 -40
17 -24 0 -50 -5 -58 -10z"/>
<path d="M2820 4830 c-12 -8 -12 -10 2 -15 26 -10 101 -1 106 13 5 15 -85 17
-108 2z"/>
<path d="M1962 4788 c6 -16 67 -52 75 -44 8 8 -17 36 -33 36 -8 0 -14 5 -14
10 0 6 -7 10 -16 10 -9 0 -14 -6 -12 -12z"/>
<path d="M3653 4783 c-56 -19 -57 -38 -1 -29 49 8 58 13 58 32 0 17 -3 17 -57
-3z"/>
<path d="M3498 4738 c-31 -11 -40 -43 -10 -34 9 2 32 7 50 11 18 4 32 13 32
21 0 16 -32 17 -72 2z"/>
<path d="M2086 4732 c-5 -9 43 -34 92 -47 17 -5 22 -2 22 13 0 15 -9 21 -39
26 -22 3 -46 9 -54 12 -8 3 -18 1 -21 -4z"/>
<path d="M3375 4705 c-5 -2 -22 -6 -37 -9 -16 -4 -28 -13 -28 -22 0 -10 6 -14
18 -11 9 3 34 8 55 12 23 4 37 11 37 20 0 14 -21 18 -45 10z"/>
<path d="M2254 4679 c-3 -6 -4 -13 -1 -16 9 -8 80 -23 115 -23 44 0 38 22 -9
31 -88 17 -99 18 -105 8z"/>
<path d="M3198 4673 c-20 -2 -42 -11 -48 -19 -11 -12 -7 -14 23 -14 42 0 87
15 87 30 0 5 -6 9 -12 8 -7 -1 -30 -3 -50 -5z"/>
<path d="M2453 4648 c-11 -19 12 -28 68 -28 44 0 59 4 59 14 0 10 -17 15 -61
18 -34 1 -63 0 -66 -4z"/>
<path d="M2992 4653 c-26 -5 -25 -28 1 -27 10 0 33 1 52 2 24 1 35 7 35 17 0
15 -34 18 -88 8z"/>
<path d="M2642 4628 c3 -9 28 -14 72 -16 52 -2 67 0 64 10 -3 9 -28 14 -72 16
-52 2 -67 0 -64 -10z"/>
<path d="M2827 4633 c-17 -16 -3 -23 43 -23 38 0 50 4 50 15 0 11 -11 15 -43
15 -24 0 -47 -3 -50 -7z"/>
<path d="M4443 4359 c-18 -5 -48 -13 -65 -18 -31 -9 -31 -10 7 -4 58 8 145 32
115 31 -14 0 -40 -4 -57 -9z"/>
<path d="M1702 4316 c2 -1 10 -7 19 -14 13 -10 18 -10 22 0 3 8 -5 14 -20 14
-13 1 -23 1 -21 0z"/>
<path d="M4210 4304 c-210 -45 -283 -62 -270 -63 34 -2 187 26 209 38 14 8 21
9 17 2 -9 -15 -2 -14 40 4 38 16 36 15 64 15 11 0 20 5 20 10 0 12 5 12 -80
-6z"/>
<path d="M4468 4303 c7 -3 16 -2 19 1 4 3 -2 6 -13 5 -11 0 -14 -3 -6 -6z"/>
<path d="M1750 4291 c0 -6 4 -13 10 -16 6 -3 7 1 4 9 -7 18 -14 21 -14 7z"/>
<path d="M4348 4293 c7 -3 16 -2 19 1 4 3 -2 6 -13 5 -11 0 -14 -3 -6 -6z"/>
<path d="M4388 4283 c7 -3 16 -2 19 1 4 3 -2 6 -13 5 -11 0 -14 -3 -6 -6z"/>
<path d="M4140 4260 c0 -5 12 -10 28 -9 24 0 25 1 7 9 -27 12 -35 12 -35 0z"/>
<path d="M4218 4263 c7 -3 16 -2 19 1 4 3 -2 6 -13 5 -11 0 -14 -3 -6 -6z"/>
<path d="M4600 4250 c-8 -5 -10 -10 -5 -10 6 0 17 5 25 10 8 5 11 10 5 10 -5
0 -17 -5 -25 -10z"/>
<path d="M4068 4241 c12 -7 62 -4 62 5 0 2 -17 4 -37 4 -24 0 -33 -3 -25 -9z"/>
<path d="M4228 4243 c7 -3 16 -2 19 1 4 3 -2 6 -13 5 -11 0 -14 -3 -6 -6z"/>
<path d="M3850 4231 c-15 -4 -20 -10 -13 -14 6 -4 24 -2 39 3 15 6 34 8 41 6
8 -3 11 -1 8 4 -7 11 -37 12 -75 1z"/>
<path d="M4138 4223 c6 -2 18 -2 25 0 6 3 1 5 -13 5 -14 0 -19 -2 -12 -5z"/>
<path d="M3740 4209 c-89 -17 -307 -49 -333 -49 -15 0 -27 -5 -27 -11 0 -8 12
-9 38 -4 20 4 78 13 127 20 50 8 101 17 115 20 19 5 22 4 10 -4 -12 -9 -11
-11 8 -11 13 0 21 4 18 9 -3 5 15 12 40 16 26 4 56 10 68 15 20 8 20 9 1 8
-11 0 -40 -4 -65 -9z"/>
<path d="M3940 4210 c-20 -6 -21 -8 -5 -8 11 0 29 3 40 8 25 11 -1 11 -35 0z"/>
<path d="M4088 4213 c6 -2 18 -2 25 0 6 3 1 5 -13 5 -14 0 -19 -2 -12 -5z"/>
<path d="M4510 4210 c-8 -5 -10 -10 -5 -10 6 0 17 5 25 10 8 5 11 10 5 10 -5
0 -17 -5 -25 -10z"/>
<path d="M3783 4193 c-13 -2 -23 -8 -23 -12 0 -10 59 -1 66 10 5 9 -4 10 -43
2z"/>
<path d="M3840 4190 c0 -5 -11 -12 -25 -16 -14 -3 -25 -10 -25 -15 0 -5 -10
-9 -22 -9 -12 0 -19 -3 -16 -6 9 -8 79 7 73 16 -3 4 12 15 33 23 35 15 35 16
10 16 -16 1 -28 -3 -28 -9z"/>
<path d="M3958 4183 c7 -3 16 -2 19 1 4 3 -2 6 -13 5 -11 0 -14 -3 -6 -6z"/>
<path d="M2008 4163 c7 -3 16 -2 19 1 4 3 -2 6 -13 5 -11 0 -14 -3 -6 -6z"/>
<path d="M3846 4161 c-3 -4 6 -6 19 -3 14 2 25 6 25 8 0 8 -39 4 -44 -5z"/>
<path d="M1741 4134 c13 -14 38 -32 54 -40 l30 -15 -30 23 c-16 13 -38 31 -47
41 -28 27 -34 20 -7 -9z"/>
<path d="M3290 4140 c-45 -8 -45 -8 13 -6 31 0 57 4 57 8 0 9 -3 9 -70 -2z"/>
<path d="M3498 4143 c6 -2 18 -2 25 0 6 3 1 5 -13 5 -14 0 -19 -2 -12 -5z"/>
<path d="M2118 4133 c7 -3 16 -2 19 1 4 3 -2 6 -13 5 -11 0 -14 -3 -6 -6z"/>
<path d="M2158 4123 c6 -2 18 -2 25 0 6 3 1 5 -13 5 -14 0 -19 -2 -12 -5z"/>
<path d="M3218 4123 c7 -3 16 -2 19 1 4 3 -2 6 -13 5 -11 0 -14 -3 -6 -6z"/>
<path d="M3648 4123 c7 -3 16 -2 19 1 4 3 -2 6 -13 5 -11 0 -14 -3 -6 -6z"/>
<path d="M2220 4110 c25 -8 97 -13 89 -6 -2 2 -29 6 -59 9 -36 4 -46 3 -30 -3z"/>
<path d="M3081 4107 c13 -6 35 -11 49 -13 22 -3 22 -2 5 5 -18 8 -17 9 10 13
17 3 4 5 -29 5 -48 -1 -54 -2 -35 -10z"/>
<path d="M3003 4103 c9 -2 23 -2 30 0 6 3 -1 5 -18 5 -16 0 -22 -2 -12 -5z"/>
<path d="M2418 4093 c17 -2 47 -2 65 0 17 2 3 4 -33 4 -36 0 -50 -2 -32 -4z"/>
<path d="M2683 4094 c6 -7 258 -6 265 1 3 2 -57 4 -133 4 -75 0 -135 -2 -132
-5z"/>
<path d="M2538 4083 c7 -3 16 -2 19 1 4 3 -2 6 -13 5 -11 0 -14 -3 -6 -6z"/>
<path d="M1835 4070 c7 -11 65 -43 65 -36 0 2 -16 13 -36 25 -19 12 -32 16
-29 11z"/>
<path d="M3223 4063 c9 -2 25 -2 35 0 9 3 1 5 -18 5 -19 0 -27 -2 -17 -5z"/>
<path d="M2673 4033 c9 -2 25 -2 35 0 9 3 1 5 -18 5 -19 0 -27 -2 -17 -5z"/>
<path d="M2792 4029 c7 -5 38 -8 68 -8 66 1 56 6 -23 12 -32 2 -52 0 -45 -4z"/>
<path d="M1959 4004 c30 -13 56 -23 58 -20 4 4 -92 46 -104 45 -4 0 16 -11 46
-25z"/>
<path d="M3858 4023 c7 -3 16 -2 19 1 4 3 -2 6 -13 5 -11 0 -14 -3 -6 -6z"/>
<path d="M2502 4013 c48 -2 129 -2 180 0 51 1 12 3 -87 3 -99 0 -141 -2 -93
-3z"/>
<path d="M3798 4013 c7 -3 16 -2 19 1 4 3 -2 6 -13 5 -11 0 -14 -3 -6 -6z"/>
<path d="M1930 3989 c0 -5 5 -7 10 -4 6 3 10 8 10 11 0 2 -4 4 -10 4 -5 0 -10
-5 -10 -11z"/>
<path d="M2060 3964 c19 -9 53 -18 75 -20 38 -4 38 -3 -10 9 -27 8 -61 17 -75
20 -14 4 -10 0 10 -9z"/>
<path d="M3588 3973 c7 -3 16 -2 19 1 4 3 -2 6 -13 5 -11 0 -14 -3 -6 -6z"/>
<path d="M2195 3930 c19 -8 73 -14 64 -6 -2 2 -22 6 -44 9 -28 5 -34 4 -20 -3z"/>
<path d="M3293 3933 c9 -2 23 -2 30 0 6 3 -1 5 -18 5 -16 0 -22 -2 -12 -5z"/>
<path d="M2288 3913 c12 -2 30 -2 40 0 9 3 -1 5 -23 4 -22 0 -30 -2 -17 -4z"/>
<path d="M2373 3903 c9 -2 23 -2 30 0 6 3 -1 5 -18 5 -16 0 -22 -2 -12 -5z"/>
<path d="M2468 3893 c6 -2 18 -2 25 0 6 3 1 5 -13 5 -14 0 -19 -2 -12 -5z"/>
<path d="M2843 3893 c9 -2 23 -2 30 0 6 3 -1 5 -18 5 -16 0 -22 -2 -12 -5z"/>
<path d="M6913 4228 c-33 -37 -43 -64 -43 -116 0 -129 106 -118 131 12 18 98
-36 161 -88 104z"/>
<path d="M6405 4073 c-25 -25 -35 -59 -35 -123 0 -42 5 -64 19 -81 19 -23 21
-23 48 -9 83 45 84 229 1 230 -9 0 -24 -7 -33 -17z"/>
<path d="M5931 3777 c-39 -20 -65 -61 -57 -92 6 -23 10 -26 34 -20 45 11 72
44 72 87 0 41 -9 46 -49 25z"/>
<path d="M3457 3139 c-33 -19 -60 -88 -55 -140 6 -58 21 -79 57 -79 51 0 91
63 91 143 0 75 -39 107 -93 76z"/>
<path d="M6920 2871 l-55 -17 -3 -113 c-2 -95 0 -113 12 -108 7 3 32 11 55 18
44 13 66 32 57 48 -4 6 -21 5 -45 -4 -45 -16 -50 -13 -43 20 3 18 13 27 36 33
22 6 32 15 34 33 3 19 1 22 -9 12 -7 -7 -23 -13 -36 -13 -19 0 -23 5 -23 29 0
25 5 29 42 37 28 6 44 15 46 27 4 20 3 20 -68 -2z"/>
<path d="M6614 2771 c-55 -33 -80 -124 -52 -185 34 -76 158 -18 158 75 0 37
-2 39 -29 39 -29 0 -43 -12 -47 -37 -1 -7 2 -13 7 -13 5 0 9 8 9 18 1 16 1 16
11 -1 28 -48 -36 -105 -68 -61 -33 44 10 137 65 142 24 2 32 8 32 23 0 25 -44
26 -86 0z"/>
<path d="M6312 2637 c-34 -89 -65 -198 -58 -204 3 -3 20 11 38 31 37 40 98 61
98 32 0 -20 19 -21 26 -1 8 20 -56 195 -72 195 -7 0 -21 -24 -32 -53z m47 -79
c1 -16 -35 -35 -45 -25 -3 3 2 22 11 43 15 35 18 37 25 19 5 -11 9 -28 9 -37z"/>
<path d="M6040 2588 c-63 -19 -95 -42 -84 -60 3 -4 16 -5 30 -2 l24 6 0 -87
c0 -77 2 -86 18 -83 14 3 17 16 19 87 2 98 6 111 33 111 20 0 35 20 28 39 -1
5 -32 0 -68 -11z"/>
<path d="M5751 2494 c-49 -41 -36 -114 20 -114 11 0 22 -7 26 -17 8 -21 -33
-56 -57 -48 -12 4 -19 -1 -23 -14 -4 -16 1 -21 23 -26 79 -17 135 89 71 134
-16 12 -34 21 -40 21 -6 0 -11 9 -11 19 0 20 18 31 51 31 12 0 19 7 19 20 0
29 -41 26 -79 -6z"/>
<path d="M5239 2327 c-21 -14 -41 -41 -53 -69 -17 -41 -18 -53 -7 -87 15 -50
36 -63 83 -51 63 18 108 84 108 159 0 70 -64 93 -131 48z m79 -29 c26 -26 3
-118 -33 -132 -32 -12 -56 -6 -66 18 -15 32 -6 66 25 99 27 29 55 34 74 15z"/>
<path d="M4738 2173 l-38 -16 0 -114 c0 -101 2 -114 16 -109 9 3 18 6 20 6 2
0 4 22 4 49 0 47 2 50 30 56 34 7 80 57 80 86 0 58 -39 72 -112 42z m62 -42
c0 -33 -11 -51 -31 -51 -14 0 -19 7 -19 28 0 33 7 42 32 42 11 0 18 -7 18 -19z"/>
<path d="M6030 2148 c-1 -7 -11 -26 -24 -42 l-24 -29 -14 28 c-18 34 -26 22
-17 -25 3 -19 7 -26 8 -15 1 14 4 16 9 7 7 -10 15 -6 35 14 l27 27 0 -33 c0
-18 3 -30 7 -27 10 10 11 107 1 107 -4 0 -8 -6 -8 -12z"/>
<path d="M4483 2092 c-12 -2 -36 -19 -53 -38 -39 -45 -41 -95 -5 -128 31 -29
31 -34 -1 -46 -25 -10 -25 -30 1 -30 28 0 96 33 105 50 5 10 16 44 25 75 13
50 13 61 0 85 -15 29 -35 38 -72 32z m43 -67 c8 -20 -15 -85 -32 -92 -22 -8
-54 26 -54 59 0 40 34 72 61 58 11 -6 23 -18 25 -25z"/>
<path d="M4176 1989 c-81 -22 -134 -156 -85 -216 16 -18 75 -16 111 5 58 33
88 139 53 189 -18 25 -41 32 -79 22z m45 -60 c24 -46 -19 -129 -68 -129 -15 0
-27 9 -34 24 -32 70 66 171 102 105z"/>
<path d="M5726 1975 c-29 -22 -7 -40 22 -19 12 8 22 19 22 25 0 13 -22 10 -44
-6z"/>
<path d="M5237 1913 c-4 -3 -6 -31 -6 -62 1 -31 4 -44 6 -28 2 15 11 27 18 27
22 0 47 41 33 57 -11 14 -40 17 -51 6z m48 -12 c6 -10 -21 -41 -36 -41 -5 0
-9 11 -9 25 0 18 5 25 19 25 11 0 22 -4 26 -9z"/>
<path d="M5502 1899 c-11 -16 -16 -18 -28 -9 -11 10 -14 9 -14 -4 0 -9 7 -16
16 -16 24 0 54 19 54 35 0 21 -13 18 -28 -6z"/>
<path d="M3858 1888 l-58 -20 0 -109 c0 -102 1 -109 20 -109 17 0 20 7 20 50
0 49 0 49 40 61 29 9 40 17 37 28 -2 9 -10 14 -18 12 -55 -15 -59 -14 -59 13
0 20 7 29 28 36 42 15 57 26 60 44 4 20 1 19 -70 -6z"/>
<path d="M4884 1744 c3 -9 6 -20 6 -24 0 -17 35 -29 51 -18 12 8 11 9 -2 5
-20 -7 -39 11 -39 35 0 10 -5 18 -11 18 -6 0 -8 -7 -5 -16z"/>
<path d="M4631 1689 c-1 -17 18 -29 45 -29 9 0 12 5 9 10 -3 6 -15 10 -25 10
-10 0 -21 6 -23 13 -4 7 -6 6 -6 -4z"/>
<path d="M4638 1613 c7 -3 16 -2 19 1 4 3 -2 6 -13 5 -11 0 -14 -3 -6 -6z"/>
</g>
</svg>
